# xmcd
#
# Track frame offsets:
#	150
#	14329
#	27174
#	40860
#	56457
#	71385
#	85275
#	99947
#	115410
#	130428
#	145401
#	159442
#	174497
#	188988
#	202657
#	216339
#	230806
#	245556
#	260715
#	275150
#
# Disc length: 3870 seconds
#
# Revision: 0
# Processed by: cddbd v1.5.2PL0 Copyright (c) Steve Scherf et al.
# Submitted via: EasyCDDAExtractor 16.0.6.1
#
DISCID=270f1c14
DTITLE=Συλλογικός δίσκος - Τα ρεμπέτικα Γ 1937-1960 13 Β
DYEAR=2010
DGENRE=Ρεμπέτικη
TTITLE0=Παγιουμτζής Στράτος-Περπινιάδης Στελλάκης - Αρχόντισσα [χασάπ., Β. Τσι
TTITLE0=τσάνης, Αθήνα 1938]
TTITLE1=Παπαϊωάννου Γιάννης-Χατζηχρήστος Απ. - Βαγγελίτσα [συρτό, Γ. Παπαϊωάνν
TTITLE1=ου, Αθήνα 1938]
TTITLE2=Βαμβακάρης Μάρκος-Πετρίδου Έλλη - Θά 'ρθω να σε ξυπνήσω [χασάπ., Μ. Βα
TTITLE2=μβακάρης, Αθ1937]
TTITLE3=Περδικόπουλος Δημήτρης-Τσιτσάνης Βασ. - Δυό χρόνια σ' αγαπώ [χασάπ., Β
TTITLE3=Τσιτσάνης, Αθήνα 1938]
TTITLE4=Κάβουρας Γιώργος - Τσάκα τσούκα σπάστα [χασ. κουλουρ., Κ.Σκαρβέλης, Αθ
TTITLE4=1.1937]
TTITLE5=Παγιουμτζής Στράτος - Κάποτε ζήλεψα [χασάπ., Β. Τσιτσάνης, Αθήνα 1939]
TTITLE6=Ρούκουνας Κώστας ή Σαμιωτάκης - Στης Πλάκας τα στενάκια [καρσιλ.Σ.Περι
TTITLE6=στέρης-Μ.Μάτσας,Αθ1936]
TTITLE7=Παγιουμτζής Στράτος-Τσιτσάνης Βασίλης - Μαζί σου εγώ που τά 'μπλεξα [Β
TTITLE7=Τσιτσάνης, Αθήνα 1939]
TTITLE8=Αμπατζή Ρίτα-Περπινιάδης Στελλάκης - Μυστικό να τό 'χεις πρέπει [χασάπ
TTITLE8=, Παν. Τούντας, Αθ 11.1937]
TTITLE9=Παγιουμτζής Στράτος-Τσιτσάνης Βασίλης - Μιά νύχτα στο Πασσαλιμάνι [χασ
TTITLE9=άπ., Β. Τσιτσάνης, Αθ 1940]
TTITLE10=Περπινιάδης Στελλάκης - Δεν σε θέλω [χασάπ., Κ. Καρίπης, Αθήνα 4.1938
TTITLE10=]
TTITLE11=Παγιουμτζής Στράτος-Περπινιάδης Στελλάκης - Όταν σε πρωτογνώρισα[χασά
TTITLE11=π.Β.Τσιτσάνης-Σ.Παγιουμτζής,Αθ3.1938]
TTITLE12=Βαμβακάρης Μάρκος - Μικρός αρραβωνιάστηκα [σέρβ., Μ. Βαμβακάρης, Αθήν
TTITLE12=α 1937]
TTITLE13=Παγιουμτζής Στράτος - Οι μερακλήδες [ζεϊμπ., Β. Τσιτσάνης, Αθήνα 1940
TTITLE13=]
TTITLE14=Παπαϊωάννου Γιάννης-Κωνσταντινίδης Γιώργος - Ξανθιά μοδιστρούλα [Γ. Π
TTITLE14=απαϊωάννου, Αθήνα 1937]
TTITLE15=Κηρομύτης Στέλιος - Μέσ' στου Βάβουλα τη γούβα [Στ. Κηρομύτης, Αθήνα 
TTITLE15=1937]
TTITLE16=Παπαϊωάννου Γιάννης-Κωνσταντινίδης Γιώργος - Όταν ήρθα χθες το βράδυ 
TTITLE16=[χασάπ., Γ. Παπαϊωάννου, Αθ 1938]
TTITLE17=Παγιουμτζής Στράτος-Τσιτσάνης Βασίλης - Πάνε τα παλιά [χασάπ., Β. Τσι
TTITLE17=τσάνης, Αθήνα 1939]
TTITLE18=Παγιουμτζής Στράτος - Μέσ' στην πολλή σκοτούρα μου [ζεϊμπ.Τσιτσάνης-Π
TTITLE18=αγιουμτζής,Αθ1938]
TTITLE19=Ρούκουνας Κώστας ή Σαμιωτάκης - Το κρασί είναι η ζωή μου [συρτός, Γρ.
TTITLE19=Ασίκης, Αθήνα 1937]
EXTD=
EXTT0=
EXTT1=
EXTT2=
EXTT3=
EXTT4=
EXTT5=
EXTT6=
EXTT7=
EXTT8=
EXTT9=
EXTT10=
EXTT11=
EXTT12=
EXTT13=
EXTT14=
EXTT15=
EXTT16=
EXTT17=
EXTT18=
EXTT19=
PLAYORDER=
